<?xml version="1.0" encoding="UTF-8"?>
<!DOCTYPE svg PUBLIC "-//W3C//DTD SVG 1.1//EN" "http://www.w3.org/Graphics/SVG/1.1/DTD/svg11.dtd">
<!-- Creator: CorelDRAW -->
<svg xmlns="http://www.w3.org/2000/svg" xml:space="preserve" width="528.63mm" height="319.512mm" version="1.1" style="shape-rendering:geometricPrecision; text-rendering:geometricPrecision; image-rendering:optimizeQuality; fill-rule:evenodd; clip-rule:evenodd"
viewBox="0 0 13663.18 8258.24"
 xmlns:xlink="http://www.w3.org/1999/xlink"
 xmlns:xodm="http://www.corel.com/coreldraw/odm/2003">
 <defs>
  <style type="text/css">
   <![CDATA[
    .fil4 {fill:url(#id0)}
    .fil3 {fill:url(#id1)}
    .fil2 {fill:url(#id2)}
    .fil1 {fill:url(#id3)}
    .fil0 {fill:url(#id4)}
   ]]>
  </style>
  <linearGradient id="id0" gradientUnits="objectBoundingBox" x1="0%" y1="50.0003%" x2="100%" y2="50.0003%">
   <stop offset="0" style="stop-opacity:1; stop-color:#424242"/>
   <stop offset="0.0313725" style="stop-opacity:1; stop-color:#424242"/>
   <stop offset="0.231373" style="stop-opacity:1; stop-color:#424242"/>
   <stop offset="0.380392" style="stop-opacity:1; stop-color:#424242"/>
   <stop offset="0.572549" style="stop-opacity:1; stop-color:#424242"/>
   <stop offset="0.721569" style="stop-opacity:1; stop-color:#424242"/>
   <stop offset="1" style="stop-opacity:1; stop-color:#424242"/>
  </linearGradient>
  <linearGradient id="id1" gradientUnits="objectBoundingBox" xlink:href="#id0" x1="0%" y1="50.0002%" x2="99.9997%" y2="50.0002%">
  </linearGradient>
  <linearGradient id="id2" gradientUnits="objectBoundingBox" xlink:href="#id0" x1="0%" y1="50.0003%" x2="100%" y2="50.0003%">
  </linearGradient>
  <linearGradient id="id3" gradientUnits="objectBoundingBox" xlink:href="#id0" x1="0%" y1="50.0002%" x2="99.9997%" y2="50.0002%">
  </linearGradient>
  <linearGradient id="id4" gradientUnits="objectBoundingBox" xlink:href="#id0" x1="0%" y1="50.0003%" x2="100%" y2="50.0003%">
  </linearGradient>
 </defs>
 <g id="Layer_x0020_2">
  <metadata id="CorelCorpID_0Corel-Layer"/>
  <g id="_2076274770880">
   <polygon class="fil0" points="-0,543.79 92.88,638.93 97.08,643.21 542.82,1099.75 1019.33,632.26 1019.48,618.6 1019.88,560.4 1005.82,560.35 625.83,557.08 685.54,618.36 938.49,623.17 543.91,1008.47 186.25,642.14 139.01,593.78 91.91,545.54 553.27,93.49 553.27,93.55 554.26,0 "/>
   <polygon class="fil1" points="290.53,545.8 383.41,640.94 387.62,645.22 833.33,1101.77 1309.87,634.28 1310.02,620.61 1310.42,562.41 1296.35,562.36 916.36,559.09 976.07,620.37 1229.03,625.19 834.45,1010.48 476.78,644.14 429.54,595.79 382.45,547.56 843.81,95.5 843.81,95.56 844.79,2.01 "/>
   <polygon class="fil0" points="-0,1643.54 92.88,1738.68 97.08,1742.96 542.82,2199.5 1019.33,1732.01 1019.48,1718.35 1019.88,1660.15 1005.82,1660.1 625.83,1656.83 685.54,1718.12 938.49,1722.92 543.91,2108.22 186.25,1741.89 139.01,1693.53 91.91,1645.29 553.27,1193.25 553.27,1193.3 554.26,1099.75 "/>
   <polygon class="fil1" points="290.53,1645.55 383.41,1740.69 387.62,1744.97 833.33,2201.52 1309.87,1734.03 1310.02,1720.36 1310.42,1662.16 1296.35,1662.11 916.36,1658.84 976.07,1720.12 1229.03,1724.94 834.45,2110.23 476.78,1743.89 429.54,1695.54 382.45,1647.31 843.81,1195.25 843.81,1195.31 844.79,1101.76 "/>
   <polygon class="fil0" points="-0,2743.29 92.88,2838.43 97.08,2842.72 542.82,3299.25 1019.33,2831.76 1019.48,2818.1 1019.88,2759.9 1005.82,2759.85 625.83,2756.58 685.54,2817.87 938.49,2822.67 543.91,3207.97 186.25,2841.64 139.01,2793.28 91.91,2745.04 553.27,2293 553.27,2293.05 554.26,2199.5 "/>
   <polygon class="fil0" points="-0,3843.04 92.88,3938.18 97.08,3942.47 542.82,4399 1019.33,3931.52 1019.48,3917.86 1019.88,3859.65 1005.82,3859.6 625.83,3856.33 685.54,3917.62 938.49,3922.42 543.91,4307.73 186.25,3941.39 139.01,3893.04 91.91,3844.79 553.27,3392.75 553.27,3392.8 554.26,3299.25 "/>
   <polygon class="fil0" points="-0,4942.79 92.88,5037.93 97.08,5042.22 542.82,5498.76 1019.33,5031.27 1019.48,5017.61 1019.88,4959.41 1005.82,4959.35 625.83,4956.08 685.54,5017.37 938.49,5022.17 543.91,5407.48 186.25,5041.14 139.01,4992.79 91.91,4944.54 553.27,4492.5 553.27,4492.56 554.26,4399 "/>
   <polygon class="fil0" points="-0,6042.55 92.88,6137.68 97.08,6141.97 542.82,6598.51 1019.33,6131.02 1019.48,6117.36 1019.88,6059.16 1005.82,6059.1 625.83,6055.83 685.54,6117.12 938.49,6121.92 543.91,6507.23 186.25,6140.89 139.01,6092.54 91.91,6044.29 553.27,5592.25 553.27,5592.31 554.26,5498.76 "/>
   <polygon class="fil0" points="-0,7142.3 92.88,7237.43 97.08,7241.72 542.82,7698.26 1019.33,7230.77 1019.48,7217.11 1019.88,7158.91 1005.82,7158.85 625.83,7155.58 685.54,7216.87 938.49,7221.68 543.91,7606.98 186.25,7240.64 139.01,7192.29 91.91,7144.05 553.27,6692 553.27,6692.06 554.26,6598.51 "/>
   <polygon class="fil1" points="290.53,2745.31 383.41,2840.44 387.62,2844.72 833.33,3301.27 1309.87,2833.78 1310.02,2820.11 1310.42,2761.91 1296.35,2761.87 916.36,2758.59 976.07,2819.87 1229.03,2824.69 834.45,3209.98 476.78,2843.64 429.54,2795.29 382.45,2747.06 843.81,2295 843.81,2295.06 844.79,2201.51 "/>
   <polygon class="fil1" points="290.53,3845.06 383.41,3940.19 387.62,3944.47 833.33,4401.02 1309.87,3933.53 1310.02,3919.86 1310.42,3861.66 1296.35,3861.62 916.36,3858.34 976.07,3919.62 1229.03,3924.44 834.45,4309.73 476.78,3943.39 429.54,3895.04 382.45,3846.81 843.81,3394.75 843.81,3394.81 844.79,3301.26 "/>
   <polygon class="fil1" points="290.53,4944.81 383.41,5039.95 387.62,5044.22 833.33,5500.77 1309.87,5033.28 1310.02,5019.61 1310.42,4961.41 1296.35,4961.37 916.36,4958.09 976.07,5019.37 1229.03,5024.19 834.45,5409.48 476.78,5043.15 429.54,4994.79 382.45,4946.56 843.81,4494.5 843.81,4494.56 844.79,4401.01 "/>
   <polygon class="fil1" points="290.53,6044.56 383.41,6139.7 387.62,6143.97 833.33,6600.52 1309.87,6133.03 1310.02,6119.36 1310.42,6061.16 1296.35,6061.12 916.36,6057.84 976.07,6119.13 1229.03,6123.94 834.45,6509.23 476.78,6142.9 429.54,6094.55 382.45,6046.31 843.81,5594.26 843.81,5594.31 844.79,5500.76 "/>
   <polygon class="fil1" points="290.53,7144.31 383.41,7239.45 387.62,7243.73 833.33,7700.27 1309.87,7232.78 1310.02,7219.11 1310.42,7160.91 1296.35,7160.87 916.36,7157.59 976.07,7218.88 1229.03,7223.69 834.45,7608.98 476.78,7242.65 429.54,7194.3 382.45,7146.06 843.81,6694.01 843.81,6694.06 844.79,6600.51 "/>
   <polygon class="fil0" points="1029.4,1101.76 1122.27,1196.89 1126.48,1201.18 1572.21,1657.72 2048.73,1190.23 2048.87,1176.57 2049.28,1118.37 2035.22,1118.31 1655.22,1115.04 1714.94,1176.33 1967.89,1181.14 1573.31,1566.44 1215.65,1200.1 1168.41,1151.75 1121.31,1103.51 1582.67,651.46 1582.67,651.52 1583.65,557.97 "/>
   <polygon class="fil2" points="2058.79,543.79 2151.67,638.93 2155.87,643.21 2601.61,1099.75 3078.13,632.26 3078.27,618.6 3078.67,560.4 3064.61,560.35 2684.62,557.08 2744.33,618.36 2997.29,623.17 2602.7,1008.47 2245.05,642.14 2197.81,593.78 2150.7,545.54 2612.07,93.49 2612.07,93.55 2613.05,0 "/>
   <polygon class="fil1" points="1319.93,1103.77 1412.8,1198.91 1417.02,1203.19 1862.73,1659.73 2339.27,1192.24 2339.41,1178.57 2339.81,1120.37 2325.74,1120.33 1945.76,1117.06 2005.47,1178.34 2258.43,1183.15 1863.84,1568.44 1506.18,1202.11 1458.94,1153.76 1411.84,1105.52 1873.21,653.47 1873.21,653.52 1874.19,559.97 "/>
   <polygon class="fil1" points="2349.32,545.8 2442.2,640.94 2446.41,645.22 2892.13,1101.77 3368.66,634.28 3368.81,620.61 3369.21,562.41 3355.14,562.36 2975.16,559.09 3034.86,620.37 3287.82,625.19 2893.24,1010.48 2535.58,644.14 2488.34,595.79 2441.24,547.56 2902.6,95.5 2902.6,95.56 2903.59,2.01 "/>
   <polygon class="fil0" points="1029.4,2201.51 1122.27,2296.64 1126.48,2300.93 1572.21,2757.47 2048.73,2289.98 2048.87,2276.32 2049.28,2218.12 2035.22,2218.06 1655.22,2214.79 1714.94,2276.08 1967.89,2280.89 1573.31,2666.19 1215.65,2299.85 1168.41,2251.5 1121.31,2203.26 1582.67,1751.21 1582.67,1751.27 1583.65,1657.72 "/>
   <polygon class="fil2" points="2058.79,1643.54 2151.67,1738.68 2155.87,1742.96 2601.61,2199.5 3078.13,1732.01 3078.27,1718.35 3078.67,1660.15 3064.61,1660.1 2684.62,1656.83 2744.33,1718.12 2997.29,1722.92 2602.7,2108.22 2245.05,1741.89 2197.81,1693.53 2150.7,1645.29 2612.07,1193.25 2612.07,1193.3 2613.05,1099.75 "/>
   <polygon class="fil1" points="1319.93,2203.52 1412.8,2298.66 1417.02,2302.94 1862.73,2759.48 2339.27,2291.99 2339.41,2278.33 2339.81,2220.12 2325.74,2220.08 1945.76,2216.81 2005.47,2278.09 2258.43,2282.9 1863.84,2668.2 1506.18,2301.86 1458.94,2253.51 1411.84,2205.27 1873.21,1753.22 1873.21,1753.27 1874.19,1659.72 "/>
   <polygon class="fil1" points="2349.32,1645.55 2442.2,1740.69 2446.41,1744.97 2892.13,2201.52 3368.66,1734.03 3368.81,1720.36 3369.21,1662.16 3355.14,1662.11 2975.16,1658.84 3034.86,1720.12 3287.82,1724.94 2893.24,2110.23 2535.58,1743.89 2488.34,1695.54 2441.24,1647.31 2902.6,1195.25 2902.6,1195.31 2903.59,1101.76 "/>
   <polygon class="fil0" points="1029.4,3301.26 1122.27,3396.39 1126.48,3400.68 1572.21,3857.22 2048.73,3389.73 2048.87,3376.07 2049.28,3317.87 2035.22,3317.82 1655.22,3314.54 1714.94,3375.83 1967.89,3380.64 1573.31,3765.94 1215.65,3399.6 1168.41,3351.25 1121.31,3303.01 1582.67,2850.96 1582.67,2851.02 1583.65,2757.47 "/>
   <polygon class="fil2" points="2058.79,2743.29 2151.67,2838.43 2155.87,2842.72 2601.61,3299.25 3078.13,2831.76 3078.27,2818.1 3078.67,2759.9 3064.61,2759.85 2684.62,2756.58 2744.33,2817.87 2997.29,2822.67 2602.7,3207.97 2245.05,2841.64 2197.81,2793.28 2150.7,2745.04 2612.07,2293 2612.07,2293.05 2613.05,2199.5 "/>
   <polygon class="fil0" points="1029.4,4401.01 1122.27,4496.15 1126.48,4500.43 1572.21,4956.97 2048.73,4489.48 2048.87,4475.82 2049.28,4417.62 2035.22,4417.57 1655.22,4414.29 1714.94,4475.58 1967.89,4480.39 1573.31,4865.69 1215.65,4499.36 1168.41,4451 1121.31,4402.76 1582.67,3950.71 1582.67,3950.77 1583.65,3857.22 "/>
   <polygon class="fil2" points="2058.79,3843.04 2151.67,3938.18 2155.87,3942.47 2601.61,4399 3078.13,3931.52 3078.27,3917.86 3078.67,3859.65 3064.61,3859.6 2684.62,3856.33 2744.33,3917.62 2997.29,3922.42 2602.7,4307.73 2245.05,3941.39 2197.81,3893.04 2150.7,3844.79 2612.07,3392.75 2612.07,3392.8 2613.05,3299.25 "/>
   <polygon class="fil0" points="1029.4,5500.76 1122.27,5595.9 1126.48,5600.18 1572.21,6056.72 2048.73,5589.23 2048.87,5575.57 2049.28,5517.37 2035.22,5517.32 1655.22,5514.05 1714.94,5575.34 1967.89,5580.14 1573.31,5965.44 1215.65,5599.11 1168.41,5550.75 1121.31,5502.51 1582.67,5050.47 1582.67,5050.52 1583.65,4956.97 "/>
   <polygon class="fil2" points="2058.79,4942.79 2151.67,5037.93 2155.87,5042.22 2601.61,5498.76 3078.13,5031.27 3078.27,5017.61 3078.67,4959.41 3064.61,4959.35 2684.62,4956.08 2744.33,5017.37 2997.29,5022.17 2602.7,5407.48 2245.05,5041.14 2197.81,4992.79 2150.7,4944.54 2612.07,4492.5 2612.07,4492.56 2613.05,4399 "/>
   <polygon class="fil0" points="1029.4,6600.51 1122.27,6695.65 1126.48,6699.94 1572.21,7156.47 2048.73,6688.98 2048.87,6675.32 2049.28,6617.12 2035.22,6617.07 1655.22,6613.8 1714.94,6675.09 1967.89,6679.89 1573.31,7065.19 1215.65,6698.86 1168.41,6650.5 1121.31,6602.26 1582.67,6150.22 1582.67,6150.27 1583.65,6056.72 "/>
   <polygon class="fil2" points="2058.79,6042.55 2151.67,6137.68 2155.87,6141.97 2601.61,6598.51 3078.13,6131.02 3078.27,6117.36 3078.67,6059.16 3064.61,6059.1 2684.62,6055.83 2744.33,6117.12 2997.29,6121.92 2602.7,6507.23 2245.05,6140.89 2197.81,6092.54 2150.7,6044.29 2612.07,5592.25 2612.07,5592.31 2613.05,5498.76 "/>
   <polygon class="fil0" points="1029.4,7700.26 1122.27,7795.4 1126.48,7799.69 1572.21,8256.22 2048.73,7788.74 2048.87,7775.08 2049.28,7716.87 2035.22,7716.82 1655.22,7713.55 1714.94,7774.84 1967.89,7779.64 1573.31,8164.94 1215.65,7798.61 1168.41,7750.26 1121.31,7702.01 1582.67,7249.97 1582.67,7250.02 1583.65,7156.47 "/>
   <polygon class="fil2" points="2058.79,7142.3 2151.67,7237.43 2155.87,7241.72 2601.61,7698.26 3078.13,7230.77 3078.27,7217.11 3078.67,7158.91 3064.61,7158.85 2684.62,7155.58 2744.33,7216.87 2997.29,7221.68 2602.7,7606.98 2245.05,7240.64 2197.81,7192.29 2150.7,7144.05 2612.07,6692 2612.07,6692.06 2613.05,6598.51 "/>
   <polygon class="fil1" points="1319.93,3303.27 1412.8,3398.41 1417.02,3402.69 1862.73,3859.24 2339.27,3391.74 2339.41,3378.08 2339.81,3319.88 2325.74,3319.83 1945.76,3316.56 2005.47,3377.84 2258.43,3382.65 1863.84,3767.95 1506.18,3401.61 1458.94,3353.26 1411.84,3305.02 1873.21,2852.97 1873.21,2853.03 1874.19,2759.47 "/>
   <polygon class="fil1" points="2349.32,2745.31 2442.2,2840.44 2446.41,2844.72 2892.13,3301.27 3368.66,2833.78 3368.81,2820.11 3369.21,2761.91 3355.14,2761.87 2975.16,2758.59 3034.86,2819.87 3287.82,2824.69 2893.24,3209.98 2535.58,2843.64 2488.34,2795.29 2441.24,2747.06 2902.6,2295 2902.6,2295.06 2903.59,2201.51 "/>
   <polygon class="fil1" points="1319.93,4403.02 1412.8,4498.16 1417.02,4502.44 1862.73,4958.99 2339.27,4491.5 2339.41,4477.83 2339.81,4419.63 2325.74,4419.58 1945.76,4416.31 2005.47,4477.59 2258.43,4482.41 1863.84,4867.7 1506.18,4501.36 1458.94,4453.01 1411.84,4404.78 1873.21,3952.72 1873.21,3952.78 1874.19,3859.23 "/>
   <polygon class="fil1" points="2349.32,3845.06 2442.2,3940.19 2446.41,3944.47 2892.13,4401.02 3368.66,3933.53 3368.81,3919.86 3369.21,3861.66 3355.14,3861.62 2975.16,3858.34 3034.86,3919.62 3287.82,3924.44 2893.24,4309.73 2535.58,3943.39 2488.34,3895.04 2441.24,3846.81 2902.6,3394.75 2902.6,3394.81 2903.59,3301.26 "/>
   <polygon class="fil1" points="1319.93,5502.77 1412.8,5597.91 1417.02,5602.19 1862.73,6058.74 2339.27,5591.25 2339.41,5577.58 2339.81,5519.38 2325.74,5519.33 1945.76,5516.06 2005.47,5577.34 2258.43,5582.16 1863.84,5967.45 1506.18,5601.11 1458.94,5552.76 1411.84,5504.53 1873.21,5052.47 1873.21,5052.53 1874.19,4958.98 "/>
   <polygon class="fil1" points="2349.32,4944.81 2442.2,5039.95 2446.41,5044.22 2892.13,5500.77 3368.66,5033.28 3368.81,5019.61 3369.21,4961.41 3355.14,4961.37 2975.16,4958.09 3034.86,5019.37 3287.82,5024.19 2893.24,5409.48 2535.58,5043.15 2488.34,4994.79 2441.24,4946.56 2902.6,4494.5 2902.6,4494.56 2903.59,4401.01 "/>
   <polygon class="fil1" points="1319.93,6602.53 1412.8,6697.66 1417.02,6701.94 1862.73,7158.49 2339.27,6691 2339.41,6677.33 2339.81,6619.13 2325.74,6619.09 1945.76,6615.81 2005.47,6677.09 2258.43,6681.91 1863.84,7067.2 1506.18,6700.86 1458.94,6652.51 1411.84,6604.28 1873.21,6152.22 1873.21,6152.28 1874.19,6058.73 "/>
   <polygon class="fil1" points="2349.32,6044.56 2442.2,6139.7 2446.41,6143.97 2892.13,6600.52 3368.66,6133.03 3368.81,6119.36 3369.21,6061.16 3355.14,6061.12 2975.16,6057.84 3034.86,6119.13 3287.82,6123.94 2893.24,6509.23 2535.58,6142.9 2488.34,6094.55 2441.24,6046.31 2902.6,5594.26 2902.6,5594.31 2903.59,5500.76 "/>
   <polygon class="fil1" points="1319.93,7702.28 1412.8,7797.41 1417.02,7801.69 1862.73,8258.24 2339.27,7790.75 2339.41,7777.08 2339.81,7718.88 2325.74,7718.84 1945.76,7715.56 2005.47,7776.84 2258.43,7781.66 1863.84,8166.95 1506.18,7800.61 1458.94,7752.26 1411.84,7704.03 1873.21,7251.97 1873.21,7252.03 1874.19,7158.48 "/>
   <polygon class="fil1" points="2349.32,7144.31 2442.2,7239.45 2446.41,7243.73 2892.13,7700.27 3368.66,7232.78 3368.81,7219.11 3369.21,7160.91 3355.14,7160.87 2975.16,7157.59 3034.86,7218.88 3287.82,7223.69 2893.24,7608.98 2535.58,7242.65 2488.34,7194.3 2441.24,7146.06 2902.6,6694.01 2902.6,6694.06 2903.59,6600.51 "/>
   <polygon class="fil2" points="3088.19,1101.76 3181.07,1196.89 3185.27,1201.18 3631.01,1657.72 4107.52,1190.23 4107.67,1176.57 4108.07,1118.37 4094.01,1118.31 3714.02,1115.04 3773.73,1176.33 4026.68,1181.14 3632.1,1566.44 3274.45,1200.1 3227.21,1151.75 3180.1,1103.51 3641.46,651.46 3641.46,651.52 3642.45,557.97 "/>
   <polygon class="fil2" points="5146.99,1101.76 5239.86,1196.89 5244.06,1201.18 5689.8,1657.72 6166.32,1190.23 6166.46,1176.57 6166.87,1118.37 6152.81,1118.31 5772.81,1115.04 5832.53,1176.33 6085.48,1181.14 5690.89,1566.44 5333.24,1200.1 5286,1151.75 5238.9,1103.51 5700.26,651.46 5700.26,651.52 5701.24,557.97 "/>
   <polygon class="fil0" points="7205.78,1101.76 7298.66,1196.89 7302.86,1201.18 7748.6,1657.72 8225.11,1190.23 8225.26,1176.57 8225.66,1118.37 8211.6,1118.31 7831.61,1115.04 7891.32,1176.33 8144.27,1181.14 7749.69,1566.44 7392.03,1200.1 7344.79,1151.75 7297.69,1103.51 7759.05,651.46 7759.05,651.52 7760.04,557.97 "/>
   <polygon class="fil2" points="9264.57,1101.76 9357.45,1196.89 9361.65,1201.18 9807.39,1657.72 10283.91,1190.23 10284.05,1176.57 10284.45,1118.37 10270.39,1118.31 9890.4,1115.04 9950.11,1176.33 10203.07,1181.14 9808.48,1566.44 9450.83,1200.1 9403.59,1151.75 9356.48,1103.51 9817.85,651.46 9817.85,651.52 9818.83,557.97 "/>
   <polygon class="fil2" points="11323.37,1101.76 11416.25,1196.89 11420.45,1201.18 11866.18,1657.72 12342.7,1190.23 12342.85,1176.57 12343.25,1118.37 12329.19,1118.31 11949.2,1115.04 12008.91,1176.33 12261.86,1181.14 11867.28,1566.44 11509.62,1200.1 11462.38,1151.75 11415.28,1103.51 11876.64,651.46 11876.64,651.52 11877.63,557.97 "/>
   <polygon class="fil0" points="4117.59,543.79 4210.47,638.93 4214.67,643.21 4660.4,1099.75 5136.92,632.26 5137.07,618.6 5137.47,560.4 5123.41,560.35 4743.42,557.08 4803.13,618.36 5056.08,623.17 4661.5,1008.47 4303.84,642.14 4256.6,593.78 4209.5,545.54 4670.86,93.49 4670.86,93.55 4671.85,0 "/>
   <polygon class="fil2" points="6176.38,543.79 6269.26,638.93 6273.46,643.21 6719.2,1099.75 7195.72,632.26 7195.86,618.6 7196.26,560.4 7182.2,560.35 6802.21,557.08 6861.92,618.36 7114.88,623.17 6720.29,1008.47 6362.64,642.14 6315.4,593.78 6268.29,545.54 6729.66,93.49 6729.66,93.55 6730.64,0 "/>
   <polygon class="fil2" points="8235.18,543.79 8328.05,638.93 8332.26,643.21 8777.99,1099.75 9254.51,632.26 9254.65,618.6 9255.06,560.4 9241,560.35 8861,557.08 8920.72,618.36 9173.67,623.17 8779.09,1008.47 8421.43,642.14 8374.19,593.78 8327.09,545.54 8788.45,93.49 8788.45,93.55 8789.44,0 "/>
   <polygon class="fil2" points="10293.97,543.79 10386.85,638.93 10391.05,643.21 10836.79,1099.75 11313.3,632.26 11313.45,618.6 11313.85,560.4 11299.79,560.35 10919.8,557.08 10979.51,618.36 11232.46,623.17 10837.88,1008.47 10480.23,642.14 10432.99,593.78 10385.88,545.54 10847.24,93.49 10847.24,93.55 10848.23,0 "/>
   <polygon class="fil2" points="12352.77,543.79 12445.64,638.93 12449.84,643.21 12895.58,1099.75 13372.1,632.26 13372.24,618.6 13372.65,560.4 13358.59,560.35 12978.59,557.08 13038.31,618.36 13291.26,623.17 12896.67,1008.47 12539.02,642.14 12491.78,593.78 12444.68,545.54 12906.04,93.49 12906.04,93.55 12907.02,0 "/>
   <polygon class="fil1" points="3378.72,1103.77 3471.6,1198.91 3475.81,1203.19 3921.53,1659.73 4398.06,1192.24 4398.21,1178.57 4398.61,1120.37 4384.54,1120.33 4004.55,1117.06 4064.26,1178.34 4317.22,1183.15 3922.64,1568.44 3564.97,1202.11 3517.73,1153.76 3470.64,1105.52 3932,653.47 3932,653.52 3932.99,559.97 "/>
   <polygon class="fil1" points="5437.51,1103.77 5530.39,1198.91 5534.6,1203.19 5980.32,1659.73 6456.86,1192.24 6457,1178.57 6457.4,1120.37 6443.33,1120.33 6063.35,1117.06 6123.05,1178.34 6376.02,1183.15 5981.43,1568.44 5623.77,1202.11 5576.53,1153.76 5529.43,1105.52 5990.8,653.47 5990.8,653.52 5991.78,559.97 "/>
   <polygon class="fil1" points="7496.31,1103.77 7589.19,1198.91 7593.4,1203.19 8039.11,1659.73 8515.65,1192.24 8515.8,1178.57 8516.2,1120.37 8502.13,1120.33 8122.14,1117.06 8181.85,1178.34 8434.81,1183.15 8040.23,1568.44 7682.56,1202.11 7635.32,1153.76 7588.23,1105.52 8049.59,653.47 8049.59,653.52 8050.57,559.97 "/>
   <polygon class="fil3" points="9555.1,1103.77 9647.98,1198.91 9652.19,1203.19 10097.91,1659.73 10574.44,1192.24 10574.59,1178.57 10574.99,1120.37 10560.92,1120.33 10180.94,1117.06 10240.64,1178.34 10493.6,1183.15 10099.02,1568.44 9741.36,1202.11 9694.12,1153.76 9647.02,1105.52 10108.38,653.47 10108.38,653.52 10109.37,559.97 "/>
   <polygon class="fil1" points="11613.9,1103.77 11706.77,1198.91 11710.99,1203.19 12156.7,1659.73 12633.24,1192.24 12633.39,1178.57 12633.79,1120.37 12619.72,1120.33 12239.73,1117.06 12299.44,1178.34 12552.4,1183.15 12157.81,1568.44 11800.15,1202.11 11752.91,1153.76 11705.82,1105.52 12167.18,653.47 12167.18,653.52 12168.16,559.97 "/>
   <polygon class="fil1" points="4408.12,545.8 4500.99,640.94 4505.21,645.22 4950.92,1101.77 5427.46,634.28 5427.61,620.61 5428.01,562.41 5413.94,562.36 5033.95,559.09 5093.66,620.37 5346.62,625.19 4952.03,1010.48 4594.37,644.14 4547.13,595.79 4500.04,547.56 4961.4,95.5 4961.4,95.56 4962.38,2.01 "/>
   <polygon class="fil1" points="6466.91,545.8 6559.79,640.94 6564,645.22 7009.72,1101.77 7486.25,634.28 7486.4,620.61 7486.8,562.41 7472.73,562.36 7092.75,559.09 7152.45,620.37 7405.41,625.19 7010.83,1010.48 6653.17,644.14 6605.92,595.79 6558.83,547.56 7020.19,95.5 7020.19,95.56 7021.18,2.01 "/>
   <polygon class="fil1" points="8525.71,545.8 8618.58,640.94 8622.8,645.22 9068.51,1101.77 9545.05,634.28 9545.19,620.61 9545.59,562.41 9531.52,562.36 9151.54,559.09 9211.25,620.37 9464.21,625.19 9069.62,1010.48 8711.96,644.14 8664.72,595.79 8617.62,547.56 9078.99,95.5 9078.99,95.56 9079.97,2.01 "/>
   <polygon class="fil1" points="10584.5,545.8 10677.38,640.94 10681.59,645.22 11127.31,1101.77 11603.84,634.28 11603.99,620.61 11604.39,562.41 11590.32,562.36 11210.33,559.09 11270.04,620.37 11523,625.19 11128.42,1010.48 10770.75,644.14 10723.51,595.79 10676.42,547.56 11137.78,95.5 11137.78,95.56 11138.77,2.01 "/>
   <polygon class="fil1" points="12643.29,545.8 12736.17,640.94 12740.38,645.22 13186.1,1101.77 13662.64,634.28 13662.78,620.61 13663.18,562.41 13649.11,562.36 13269.13,559.09 13328.83,620.37 13581.8,625.19 13187.21,1010.48 12829.55,644.14 12782.31,595.79 12735.21,547.56 13196.58,95.5 13196.58,95.56 13197.56,2.01 "/>
   <polygon class="fil4" points="3088.19,2201.51 3181.07,2296.64 3185.27,2300.93 3631.01,2757.47 4107.52,2289.98 4107.67,2276.32 4108.07,2218.12 4094.01,2218.06 3714.02,2214.79 3773.73,2276.08 4026.68,2280.89 3632.1,2666.19 3274.45,2299.85 3227.21,2251.5 3180.1,2203.26 3641.46,1751.21 3641.46,1751.27 3642.45,1657.72 "/>
   <polygon class="fil2" points="5146.99,2201.51 5239.86,2296.64 5244.06,2300.93 5689.8,2757.47 6166.32,2289.98 6166.46,2276.32 6166.87,2218.12 6152.81,2218.06 5772.81,2214.79 5832.53,2276.08 6085.48,2280.89 5690.89,2666.19 5333.24,2299.85 5286,2251.5 5238.9,2203.26 5700.26,1751.21 5700.26,1751.27 5701.24,1657.72 "/>
   <polygon class="fil0" points="7205.78,2201.51 7298.66,2296.64 7302.86,2300.93 7748.6,2757.47 8225.11,2289.98 8225.26,2276.32 8225.66,2218.12 8211.6,2218.06 7831.61,2214.79 7891.32,2276.08 8144.27,2280.89 7749.69,2666.19 7392.03,2299.85 7344.79,2251.5 7297.69,2203.26 7759.05,1751.21 7759.05,1751.27 7760.04,1657.72 "/>
   <polygon class="fil4" points="9264.57,2201.51 9357.45,2296.64 9361.65,2300.93 9807.39,2757.47 10283.91,2289.98 10284.05,2276.32 10284.45,2218.12 10270.39,2218.06 9890.4,2214.79 9950.11,2276.08 10203.07,2280.89 9808.48,2666.19 9450.83,2299.85 9403.59,2251.5 9356.48,2203.26 9817.85,1751.21 9817.85,1751.27 9818.83,1657.72 "/>
   <polygon class="fil4" points="11323.37,2201.51 11416.25,2296.64 11420.45,2300.93 11866.18,2757.47 12342.7,2289.98 12342.85,2276.32 12343.25,2218.12 12329.19,2218.06 11949.2,2214.79 12008.91,2276.08 12261.86,2280.89 11867.28,2666.19 11509.62,2299.85 11462.38,2251.5 11415.28,2203.26 11876.64,1751.21 11876.64,1751.27 11877.63,1657.72 "/>
   <polygon class="fil0" points="4117.59,1643.54 4210.47,1738.68 4214.67,1742.96 4660.4,2199.5 5136.92,1732.01 5137.07,1718.35 5137.47,1660.15 5123.41,1660.1 4743.42,1656.83 4803.13,1718.12 5056.08,1722.92 4661.5,2108.22 4303.84,1741.89 4256.6,1693.53 4209.5,1645.29 4670.86,1193.25 4670.86,1193.3 4671.85,1099.75 "/>
   <polygon class="fil2" points="6176.38,1643.54 6269.26,1738.68 6273.46,1742.96 6719.2,2199.5 7195.72,1732.01 7195.86,1718.35 7196.26,1660.15 7182.2,1660.1 6802.21,1656.83 6861.92,1718.12 7114.88,1722.92 6720.29,2108.22 6362.64,1741.89 6315.4,1693.53 6268.29,1645.29 6729.66,1193.25 6729.66,1193.3 6730.64,1099.75 "/>
   <polygon class="fil2" points="8235.18,1643.54 8328.05,1738.68 8332.26,1742.96 8777.99,2199.5 9254.51,1732.01 9254.65,1718.35 9255.06,1660.15 9241,1660.1 8861,1656.83 8920.72,1718.12 9173.67,1722.92 8779.09,2108.22 8421.43,1741.89 8374.19,1693.53 8327.09,1645.29 8788.45,1193.25 8788.45,1193.3 8789.44,1099.75 "/>
   <polygon class="fil2" points="10293.97,1643.54 10386.85,1738.68 10391.05,1742.96 10836.79,2199.5 11313.3,1732.01 11313.45,1718.35 11313.85,1660.15 11299.79,1660.1 10919.8,1656.83 10979.51,1718.12 11232.46,1722.92 10837.88,2108.22 10480.23,1741.89 10432.99,1693.53 10385.88,1645.29 10847.24,1193.25 10847.24,1193.3 10848.23,1099.75 "/>
   <polygon class="fil4" points="12352.77,1643.54 12445.64,1738.68 12449.84,1742.96 12895.58,2199.5 13372.1,1732.01 13372.24,1718.35 13372.65,1660.15 13358.59,1660.1 12978.59,1656.83 13038.31,1718.12 13291.26,1722.92 12896.67,2108.22 12539.02,1741.89 12491.78,1693.53 12444.68,1645.29 12906.04,1193.25 12906.04,1193.3 12907.02,1099.75 "/>
   <polygon class="fil3" points="3378.72,2203.52 3471.6,2298.66 3475.81,2302.94 3921.53,2759.48 4398.06,2291.99 4398.21,2278.33 4398.61,2220.12 4384.54,2220.08 4004.55,2216.81 4064.26,2278.09 4317.22,2282.9 3922.64,2668.2 3564.97,2301.86 3517.73,2253.51 3470.64,2205.27 3932,1753.22 3932,1753.27 3932.99,1659.72 "/>
   <polygon class="fil3" points="5437.51,2203.52 5530.39,2298.66 5534.6,2302.94 5980.32,2759.48 6456.86,2291.99 6457,2278.33 6457.4,2220.12 6443.33,2220.08 6063.35,2216.81 6123.05,2278.09 6376.02,2282.9 5981.43,2668.2 5623.77,2301.86 5576.53,2253.51 5529.43,2205.27 5990.8,1753.22 5990.8,1753.27 5991.78,1659.72 "/>
   <polygon class="fil3" points="7496.31,2203.52 7589.19,2298.66 7593.4,2302.94 8039.11,2759.48 8515.65,2291.99 8515.8,2278.33 8516.2,2220.12 8502.13,2220.08 8122.14,2216.81 8181.85,2278.09 8434.81,2282.9 8040.23,2668.2 7682.56,2301.86 7635.32,2253.51 7588.23,2205.27 8049.59,1753.22 8049.59,1753.27 8050.57,1659.72 "/>
   <polygon class="fil3" points="9555.1,2203.52 9647.98,2298.66 9652.19,2302.94 10097.91,2759.48 10574.44,2291.99 10574.59,2278.33 10574.99,2220.12 10560.92,2220.08 10180.94,2216.81 10240.64,2278.09 10493.6,2282.9 10099.02,2668.2 9741.36,2301.86 9694.12,2253.51 9647.02,2205.27 10108.38,1753.22 10108.38,1753.27 10109.37,1659.72 "/>
   <polygon class="fil3" points="11613.9,2203.52 11706.77,2298.66 11710.99,2302.94 12156.7,2759.48 12633.24,2291.99 12633.39,2278.33 12633.79,2220.12 12619.72,2220.08 12239.73,2216.81 12299.44,2278.09 12552.4,2282.9 12157.81,2668.2 11800.15,2301.86 11752.91,2253.51 11705.82,2205.27 12167.18,1753.22 12167.18,1753.27 12168.16,1659.72 "/>
   <polygon class="fil3" points="4408.12,1645.55 4500.99,1740.69 4505.21,1744.97 4950.92,2201.52 5427.46,1734.03 5427.61,1720.36 5428.01,1662.16 5413.94,1662.11 5033.95,1658.84 5093.66,1720.12 5346.62,1724.94 4952.03,2110.23 4594.37,1743.89 4547.13,1695.54 4500.04,1647.31 4961.4,1195.25 4961.4,1195.31 4962.38,1101.76 "/>
   <polygon class="fil3" points="6466.91,1645.55 6559.79,1740.69 6564,1744.97 7009.72,2201.52 7486.25,1734.03 7486.4,1720.36 7486.8,1662.16 7472.73,1662.11 7092.75,1658.84 7152.45,1720.12 7405.41,1724.94 7010.83,2110.23 6653.17,1743.89 6605.92,1695.54 6558.83,1647.31 7020.19,1195.25 7020.19,1195.31 7021.18,1101.76 "/>
   <polygon class="fil3" points="8525.71,1645.55 8618.58,1740.69 8622.8,1744.97 9068.51,2201.52 9545.05,1734.03 9545.19,1720.36 9545.59,1662.16 9531.52,1662.11 9151.54,1658.84 9211.25,1720.12 9464.21,1724.94 9069.62,2110.23 8711.96,1743.89 8664.72,1695.54 8617.62,1647.31 9078.99,1195.25 9078.99,1195.31 9079.97,1101.76 "/>
   <polygon class="fil3" points="10584.5,1645.55 10677.38,1740.69 10681.59,1744.97 11127.31,2201.52 11603.84,1734.03 11603.99,1720.36 11604.39,1662.16 11590.32,1662.11 11210.33,1658.84 11270.04,1720.12 11523,1724.94 11128.42,2110.23 10770.75,1743.89 10723.51,1695.54 10676.42,1647.31 11137.78,1195.25 11137.78,1195.31 11138.77,1101.76 "/>
   <polygon class="fil3" points="12643.29,1645.55 12736.17,1740.69 12740.38,1744.97 13186.1,2201.52 13662.64,1734.03 13662.78,1720.36 13663.18,1662.16 13649.11,1662.11 13269.13,1658.84 13328.83,1720.12 13581.8,1724.94 13187.21,2110.23 12829.55,1743.89 12782.31,1695.54 12735.21,1647.31 13196.58,1195.25 13196.58,1195.31 13197.56,1101.76 "/>
   <polygon class="fil4" points="3088.19,3301.26 3181.07,3396.39 3185.27,3400.68 3631.01,3857.22 4107.52,3389.73 4107.67,3376.07 4108.07,3317.87 4094.01,3317.82 3714.02,3314.54 3773.73,3375.83 4026.68,3380.64 3632.1,3765.94 3274.45,3399.6 3227.21,3351.25 3180.1,3303.01 3641.46,2850.96 3641.46,2851.02 3642.45,2757.47 "/>
   <polygon class="fil2" points="5146.99,3301.26 5239.86,3396.39 5244.06,3400.68 5689.8,3857.22 6166.32,3389.73 6166.46,3376.07 6166.87,3317.87 6152.81,3317.82 5772.81,3314.54 5832.53,3375.83 6085.48,3380.64 5690.89,3765.94 5333.24,3399.6 5286,3351.25 5238.9,3303.01 5700.26,2850.96 5700.26,2851.02 5701.24,2757.47 "/>
   <polygon class="fil0" points="7205.78,3301.26 7298.66,3396.39 7302.86,3400.68 7748.6,3857.22 8225.11,3389.73 8225.26,3376.07 8225.66,3317.87 8211.6,3317.82 7831.61,3314.54 7891.32,3375.83 8144.27,3380.64 7749.69,3765.94 7392.03,3399.6 7344.79,3351.25 7297.69,3303.01 7759.05,2850.96 7759.05,2851.02 7760.04,2757.47 "/>
   <polygon class="fil4" points="9264.57,3301.26 9357.45,3396.39 9361.65,3400.68 9807.39,3857.22 10283.91,3389.73 10284.05,3376.07 10284.45,3317.87 10270.39,3317.82 9890.4,3314.54 9950.11,3375.83 10203.07,3380.64 9808.48,3765.94 9450.83,3399.6 9403.59,3351.25 9356.48,3303.01 9817.85,2850.96 9817.85,2851.02 9818.83,2757.47 "/>
   <polygon class="fil4" points="11323.37,3301.26 11416.25,3396.39 11420.45,3400.68 11866.18,3857.22 12342.7,3389.73 12342.85,3376.07 12343.25,3317.87 12329.19,3317.82 11949.2,3314.54 12008.91,3375.83 12261.86,3380.64 11867.28,3765.94 11509.62,3399.6 11462.38,3351.25 11415.28,3303.01 11876.64,2850.96 11876.64,2851.02 11877.63,2757.47 "/>
   <polygon class="fil0" points="4117.59,2743.29 4210.47,2838.43 4214.67,2842.72 4660.4,3299.25 5136.92,2831.76 5137.07,2818.1 5137.47,2759.9 5123.41,2759.85 4743.42,2756.58 4803.13,2817.87 5056.08,2822.67 4661.5,3207.97 4303.84,2841.64 4256.6,2793.28 4209.5,2745.04 4670.86,2293 4670.86,2293.05 4671.85,2199.5 "/>
   <polygon class="fil2" points="6176.38,2743.29 6269.26,2838.43 6273.46,2842.72 6719.2,3299.25 7195.72,2831.76 7195.86,2818.1 7196.26,2759.9 7182.2,2759.85 6802.21,2756.58 6861.92,2817.87 7114.88,2822.67 6720.29,3207.97 6362.64,2841.64 6315.4,2793.28 6268.29,2745.04 6729.66,2293 6729.66,2293.05 6730.64,2199.5 "/>
   <polygon class="fil2" points="8235.18,2743.29 8328.05,2838.43 8332.26,2842.72 8777.99,3299.25 9254.51,2831.76 9254.65,2818.1 9255.06,2759.9 9241,2759.85 8861,2756.58 8920.72,2817.87 9173.67,2822.67 8779.09,3207.97 8421.43,2841.64 8374.19,2793.28 8327.09,2745.04 8788.45,2293 8788.45,2293.05 8789.44,2199.5 "/>
   <polygon class="fil2" points="10293.97,2743.29 10386.85,2838.43 10391.05,2842.72 10836.79,3299.25 11313.3,2831.76 11313.45,2818.1 11313.85,2759.9 11299.79,2759.85 10919.8,2756.58 10979.51,2817.87 11232.46,2822.67 10837.88,3207.97 10480.23,2841.64 10432.99,2793.28 10385.88,2745.04 10847.24,2293 10847.24,2293.05 10848.23,2199.5 "/>
   <polygon class="fil4" points="12352.77,2743.29 12445.64,2838.43 12449.84,2842.72 12895.58,3299.25 13372.1,2831.76 13372.24,2818.1 13372.65,2759.9 13358.59,2759.85 12978.59,2756.58 13038.31,2817.87 13291.26,2822.67 12896.67,3207.97 12539.02,2841.64 12491.78,2793.28 12444.68,2745.04 12906.04,2293 12906.04,2293.05 12907.02,2199.5 "/>
   <polygon class="fil4" points="3088.19,4401.01 3181.07,4496.15 3185.27,4500.43 3631.01,4956.97 4107.52,4489.48 4107.67,4475.82 4108.07,4417.62 4094.01,4417.57 3714.02,4414.29 3773.73,4475.58 4026.68,4480.39 3632.1,4865.69 3274.45,4499.36 3227.21,4451 3180.1,4402.76 3641.46,3950.71 3641.46,3950.77 3642.45,3857.22 "/>
   <polygon class="fil2" points="5146.99,4401.01 5239.86,4496.15 5244.06,4500.43 5689.8,4956.97 6166.32,4489.48 6166.46,4475.82 6166.87,4417.62 6152.81,4417.57 5772.81,4414.29 5832.53,4475.58 6085.48,4480.39 5690.89,4865.69 5333.24,4499.36 5286,4451 5238.9,4402.76 5700.26,3950.71 5700.26,3950.77 5701.24,3857.22 "/>
   <polygon class="fil0" points="7205.78,4401.01 7298.66,4496.15 7302.86,4500.43 7748.6,4956.97 8225.11,4489.48 8225.26,4475.82 8225.66,4417.62 8211.6,4417.57 7831.61,4414.29 7891.32,4475.58 8144.27,4480.39 7749.69,4865.69 7392.03,4499.36 7344.79,4451 7297.69,4402.76 7759.05,3950.71 7759.05,3950.77 7760.04,3857.22 "/>
   <polygon class="fil4" points="9264.57,4401.01 9357.45,4496.15 9361.65,4500.43 9807.39,4956.97 10283.91,4489.48 10284.05,4475.82 10284.45,4417.62 10270.39,4417.57 9890.4,4414.29 9950.11,4475.58 10203.07,4480.39 9808.48,4865.69 9450.83,4499.36 9403.59,4451 9356.48,4402.76 9817.85,3950.71 9817.85,3950.77 9818.83,3857.22 "/>
   <polygon class="fil4" points="11323.37,4401.01 11416.25,4496.15 11420.45,4500.43 11866.18,4956.97 12342.7,4489.48 12342.85,4475.82 12343.25,4417.62 12329.19,4417.57 11949.2,4414.29 12008.91,4475.58 12261.86,4480.39 11867.28,4865.69 11509.62,4499.36 11462.38,4451 11415.28,4402.76 11876.64,3950.71 11876.64,3950.77 11877.63,3857.22 "/>
   <polygon class="fil0" points="4117.59,3843.04 4210.47,3938.18 4214.67,3942.47 4660.4,4399 5136.92,3931.52 5137.07,3917.86 5137.47,3859.65 5123.41,3859.6 4743.42,3856.33 4803.13,3917.62 5056.08,3922.42 4661.5,4307.73 4303.84,3941.39 4256.6,3893.04 4209.5,3844.79 4670.86,3392.75 4670.86,3392.8 4671.85,3299.25 "/>
   <polygon class="fil2" points="6176.38,3843.04 6269.26,3938.18 6273.46,3942.47 6719.2,4399 7195.72,3931.52 7195.86,3917.86 7196.26,3859.65 7182.2,3859.6 6802.21,3856.33 6861.92,3917.62 7114.88,3922.42 6720.29,4307.73 6362.64,3941.39 6315.4,3893.04 6268.29,3844.79 6729.66,3392.75 6729.66,3392.8 6730.64,3299.25 "/>
   <polygon class="fil2" points="8235.18,3843.04 8328.05,3938.18 8332.26,3942.47 8777.99,4399 9254.51,3931.52 9254.65,3917.86 9255.06,3859.65 9241,3859.6 8861,3856.33 8920.72,3917.62 9173.67,3922.42 8779.09,4307.73 8421.43,3941.39 8374.19,3893.04 8327.09,3844.79 8788.45,3392.75 8788.45,3392.8 8789.44,3299.25 "/>
   <polygon class="fil2" points="10293.97,3843.04 10386.85,3938.18 10391.05,3942.47 10836.79,4399 11313.3,3931.52 11313.45,3917.86 11313.85,3859.65 11299.79,3859.6 10919.8,3856.33 10979.51,3917.62 11232.46,3922.42 10837.88,4307.73 10480.23,3941.39 10432.99,3893.04 10385.88,3844.79 10847.24,3392.75 10847.24,3392.8 10848.23,3299.25 "/>
   <polygon class="fil4" points="12352.77,3843.04 12445.64,3938.18 12449.84,3942.47 12895.58,4399 13372.1,3931.52 13372.24,3917.86 13372.65,3859.65 13358.59,3859.6 12978.59,3856.33 13038.31,3917.62 13291.26,3922.42 12896.67,4307.73 12539.02,3941.39 12491.78,3893.04 12444.68,3844.79 12906.04,3392.75 12906.04,3392.8 12907.02,3299.25 "/>
   <polygon class="fil4" points="3088.19,5500.76 3181.07,5595.9 3185.27,5600.18 3631.01,6056.72 4107.52,5589.23 4107.67,5575.57 4108.07,5517.37 4094.01,5517.32 3714.02,5514.05 3773.73,5575.34 4026.68,5580.14 3632.1,5965.44 3274.45,5599.11 3227.21,5550.75 3180.1,5502.51 3641.46,5050.47 3641.46,5050.52 3642.45,4956.97 "/>
   <polygon class="fil2" points="5146.99,5500.76 5239.86,5595.9 5244.06,5600.18 5689.8,6056.72 6166.32,5589.23 6166.46,5575.57 6166.87,5517.37 6152.81,5517.32 5772.81,5514.05 5832.53,5575.34 6085.48,5580.14 5690.89,5965.44 5333.24,5599.11 5286,5550.75 5238.9,5502.51 5700.26,5050.47 5700.26,5050.52 5701.24,4956.97 "/>
   <polygon class="fil0" points="7205.78,5500.76 7298.66,5595.9 7302.86,5600.18 7748.6,6056.72 8225.11,5589.23 8225.26,5575.57 8225.66,5517.37 8211.6,5517.32 7831.61,5514.05 7891.32,5575.34 8144.27,5580.14 7749.69,5965.44 7392.03,5599.11 7344.79,5550.75 7297.69,5502.51 7759.05,5050.47 7759.05,5050.52 7760.04,4956.97 "/>
   <polygon class="fil4" points="9264.57,5500.76 9357.45,5595.9 9361.65,5600.18 9807.39,6056.72 10283.91,5589.23 10284.05,5575.57 10284.45,5517.37 10270.39,5517.32 9890.4,5514.05 9950.11,5575.34 10203.07,5580.14 9808.48,5965.44 9450.83,5599.11 9403.59,5550.75 9356.48,5502.51 9817.85,5050.47 9817.85,5050.52 9818.83,4956.97 "/>
   <polygon class="fil4" points="11323.37,5500.76 11416.25,5595.9 11420.45,5600.18 11866.18,6056.72 12342.7,5589.23 12342.85,5575.57 12343.25,5517.37 12329.19,5517.32 11949.2,5514.05 12008.91,5575.34 12261.86,5580.14 11867.28,5965.44 11509.62,5599.11 11462.38,5550.75 11415.28,5502.51 11876.64,5050.47 11876.64,5050.52 11877.63,4956.97 "/>
   <polygon class="fil0" points="4117.59,4942.79 4210.47,5037.93 4214.67,5042.22 4660.4,5498.76 5136.92,5031.27 5137.07,5017.61 5137.47,4959.41 5123.41,4959.35 4743.42,4956.08 4803.13,5017.37 5056.08,5022.17 4661.5,5407.48 4303.84,5041.14 4256.6,4992.79 4209.5,4944.54 4670.86,4492.5 4670.86,4492.56 4671.85,4399 "/>
   <polygon class="fil2" points="6176.38,4942.79 6269.26,5037.93 6273.46,5042.22 6719.2,5498.76 7195.72,5031.27 7195.86,5017.61 7196.26,4959.41 7182.2,4959.35 6802.21,4956.08 6861.92,5017.37 7114.88,5022.17 6720.29,5407.48 6362.64,5041.14 6315.4,4992.79 6268.29,4944.54 6729.66,4492.5 6729.66,4492.56 6730.64,4399 "/>
   <polygon class="fil2" points="8235.18,4942.79 8328.05,5037.93 8332.26,5042.22 8777.99,5498.76 9254.51,5031.27 9254.65,5017.61 9255.06,4959.41 9241,4959.35 8861,4956.08 8920.72,5017.37 9173.67,5022.17 8779.09,5407.48 8421.43,5041.14 8374.19,4992.79 8327.09,4944.54 8788.45,4492.5 8788.45,4492.56 8789.44,4399 "/>
   <polygon class="fil2" points="10293.97,4942.79 10386.85,5037.93 10391.05,5042.22 10836.79,5498.76 11313.3,5031.27 11313.45,5017.61 11313.85,4959.41 11299.79,4959.35 10919.8,4956.08 10979.51,5017.37 11232.46,5022.17 10837.88,5407.48 10480.23,5041.14 10432.99,4992.79 10385.88,4944.54 10847.24,4492.5 10847.24,4492.56 10848.23,4399 "/>
   <polygon class="fil4" points="12352.77,4942.79 12445.64,5037.93 12449.84,5042.22 12895.58,5498.76 13372.1,5031.27 13372.24,5017.61 13372.65,4959.41 13358.59,4959.35 12978.59,4956.08 13038.31,5017.37 13291.26,5022.17 12896.67,5407.48 12539.02,5041.14 12491.78,4992.79 12444.68,4944.54 12906.04,4492.5 12906.04,4492.56 12907.02,4399 "/>
   <polygon class="fil4" points="3088.19,6600.51 3181.07,6695.65 3185.27,6699.94 3631.01,7156.47 4107.52,6688.98 4107.67,6675.32 4108.07,6617.12 4094.01,6617.07 3714.02,6613.8 3773.73,6675.09 4026.68,6679.89 3632.1,7065.19 3274.45,6698.86 3227.21,6650.5 3180.1,6602.26 3641.46,6150.22 3641.46,6150.27 3642.45,6056.72 "/>
   <polygon class="fil2" points="5146.99,6600.51 5239.86,6695.65 5244.06,6699.94 5689.8,7156.47 6166.32,6688.98 6166.46,6675.32 6166.87,6617.12 6152.81,6617.07 5772.81,6613.8 5832.53,6675.09 6085.48,6679.89 5690.89,7065.19 5333.24,6698.86 5286,6650.5 5238.9,6602.26 5700.26,6150.22 5700.26,6150.27 5701.24,6056.72 "/>
   <polygon class="fil0" points="7205.78,6600.51 7298.66,6695.65 7302.86,6699.94 7748.6,7156.47 8225.11,6688.98 8225.26,6675.32 8225.66,6617.12 8211.6,6617.07 7831.61,6613.8 7891.32,6675.09 8144.27,6679.89 7749.69,7065.19 7392.03,6698.86 7344.79,6650.5 7297.69,6602.26 7759.05,6150.22 7759.05,6150.27 7760.04,6056.72 "/>
   <polygon class="fil4" points="9264.57,6600.51 9357.45,6695.65 9361.65,6699.94 9807.39,7156.47 10283.91,6688.98 10284.05,6675.32 10284.45,6617.12 10270.39,6617.07 9890.4,6613.8 9950.11,6675.09 10203.07,6679.89 9808.48,7065.19 9450.83,6698.86 9403.59,6650.5 9356.48,6602.26 9817.85,6150.22 9817.85,6150.27 9818.83,6056.72 "/>
   <polygon class="fil4" points="11323.37,6600.51 11416.25,6695.65 11420.45,6699.94 11866.18,7156.47 12342.7,6688.98 12342.85,6675.32 12343.25,6617.12 12329.19,6617.07 11949.2,6613.8 12008.91,6675.09 12261.86,6679.89 11867.28,7065.19 11509.62,6698.86 11462.38,6650.5 11415.28,6602.26 11876.64,6150.22 11876.64,6150.27 11877.63,6056.72 "/>
   <polygon class="fil0" points="4117.59,6042.55 4210.47,6137.68 4214.67,6141.97 4660.4,6598.51 5136.92,6131.02 5137.07,6117.36 5137.47,6059.16 5123.41,6059.1 4743.42,6055.83 4803.13,6117.12 5056.08,6121.92 4661.5,6507.23 4303.84,6140.89 4256.6,6092.54 4209.5,6044.29 4670.86,5592.25 4670.86,5592.31 4671.85,5498.76 "/>
   <polygon class="fil2" points="6176.38,6042.55 6269.26,6137.68 6273.46,6141.97 6719.2,6598.51 7195.72,6131.02 7195.86,6117.36 7196.26,6059.16 7182.2,6059.1 6802.21,6055.83 6861.92,6117.12 7114.88,6121.92 6720.29,6507.23 6362.64,6140.89 6315.4,6092.54 6268.29,6044.29 6729.66,5592.25 6729.66,5592.31 6730.64,5498.76 "/>
   <polygon class="fil2" points="8235.18,6042.55 8328.05,6137.68 8332.26,6141.97 8777.99,6598.51 9254.51,6131.02 9254.65,6117.36 9255.06,6059.16 9241,6059.1 8861,6055.83 8920.72,6117.12 9173.67,6121.92 8779.09,6507.23 8421.43,6140.89 8374.19,6092.54 8327.09,6044.29 8788.45,5592.25 8788.45,5592.31 8789.44,5498.76 "/>
   <polygon class="fil2" points="10293.97,6042.55 10386.85,6137.68 10391.05,6141.97 10836.79,6598.51 11313.3,6131.02 11313.45,6117.36 11313.85,6059.16 11299.79,6059.1 10919.8,6055.83 10979.51,6117.12 11232.46,6121.92 10837.88,6507.23 10480.23,6140.89 10432.99,6092.54 10385.88,6044.29 10847.24,5592.25 10847.24,5592.31 10848.23,5498.76 "/>
   <polygon class="fil4" points="12352.77,6042.55 12445.64,6137.68 12449.84,6141.97 12895.58,6598.51 13372.1,6131.02 13372.24,6117.36 13372.65,6059.16 13358.59,6059.1 12978.59,6055.83 13038.31,6117.12 13291.26,6121.92 12896.67,6507.23 12539.02,6140.89 12491.78,6092.54 12444.68,6044.29 12906.04,5592.25 12906.04,5592.31 12907.02,5498.76 "/>
   <polygon class="fil4" points="3088.19,7700.26 3181.07,7795.4 3185.27,7799.69 3631.01,8256.22 4107.52,7788.74 4107.67,7775.08 4108.07,7716.87 4094.01,7716.82 3714.02,7713.55 3773.73,7774.84 4026.68,7779.64 3632.1,8164.94 3274.45,7798.61 3227.21,7750.26 3180.1,7702.01 3641.46,7249.97 3641.46,7250.02 3642.45,7156.47 "/>
   <polygon class="fil2" points="5146.99,7700.26 5239.86,7795.4 5244.06,7799.69 5689.8,8256.22 6166.32,7788.74 6166.46,7775.08 6166.87,7716.87 6152.81,7716.82 5772.81,7713.55 5832.53,7774.84 6085.48,7779.64 5690.89,8164.94 5333.24,7798.61 5286,7750.26 5238.9,7702.01 5700.26,7249.97 5700.26,7250.02 5701.24,7156.47 "/>
   <polygon class="fil0" points="7205.78,7700.26 7298.66,7795.4 7302.86,7799.69 7748.6,8256.22 8225.11,7788.74 8225.26,7775.08 8225.66,7716.87 8211.6,7716.82 7831.61,7713.55 7891.32,7774.84 8144.27,7779.64 7749.69,8164.94 7392.03,7798.61 7344.79,7750.26 7297.69,7702.01 7759.05,7249.97 7759.05,7250.02 7760.04,7156.47 "/>
   <polygon class="fil4" points="9264.57,7700.26 9357.45,7795.4 9361.65,7799.69 9807.39,8256.22 10283.91,7788.74 10284.05,7775.08 10284.45,7716.87 10270.39,7716.82 9890.4,7713.55 9950.11,7774.84 10203.07,7779.64 9808.48,8164.94 9450.83,7798.61 9403.59,7750.26 9356.48,7702.01 9817.85,7249.97 9817.85,7250.02 9818.83,7156.47 "/>
   <polygon class="fil4" points="11323.37,7700.26 11416.25,7795.4 11420.45,7799.69 11866.18,8256.22 12342.7,7788.74 12342.85,7775.08 12343.25,7716.87 12329.19,7716.82 11949.2,7713.55 12008.91,7774.84 12261.86,7779.64 11867.28,8164.94 11509.62,7798.61 11462.38,7750.26 11415.28,7702.01 11876.64,7249.97 11876.64,7250.02 11877.63,7156.47 "/>
   <polygon class="fil0" points="4117.59,7142.3 4210.47,7237.43 4214.67,7241.72 4660.4,7698.26 5136.92,7230.77 5137.07,7217.11 5137.47,7158.91 5123.41,7158.85 4743.42,7155.58 4803.13,7216.87 5056.08,7221.68 4661.5,7606.98 4303.84,7240.64 4256.6,7192.29 4209.5,7144.05 4670.86,6692 4670.86,6692.06 4671.85,6598.51 "/>
   <polygon class="fil2" points="6176.38,7142.3 6269.26,7237.43 6273.46,7241.72 6719.2,7698.26 7195.72,7230.77 7195.86,7217.11 7196.26,7158.91 7182.2,7158.85 6802.21,7155.58 6861.92,7216.87 7114.88,7221.68 6720.29,7606.98 6362.64,7240.64 6315.4,7192.29 6268.29,7144.05 6729.66,6692 6729.66,6692.06 6730.64,6598.51 "/>
   <polygon class="fil2" points="8235.18,7142.3 8328.05,7237.43 8332.26,7241.72 8777.99,7698.26 9254.51,7230.77 9254.65,7217.11 9255.06,7158.91 9241,7158.85 8861,7155.58 8920.72,7216.87 9173.67,7221.68 8779.09,7606.98 8421.43,7240.64 8374.19,7192.29 8327.09,7144.05 8788.45,6692 8788.45,6692.06 8789.44,6598.51 "/>
   <polygon class="fil2" points="10293.97,7142.3 10386.85,7237.43 10391.05,7241.72 10836.79,7698.26 11313.3,7230.77 11313.45,7217.11 11313.85,7158.91 11299.79,7158.85 10919.8,7155.58 10979.51,7216.87 11232.46,7221.68 10837.88,7606.98 10480.23,7240.64 10432.99,7192.29 10385.88,7144.05 10847.24,6692 10847.24,6692.06 10848.23,6598.51 "/>
   <polygon class="fil4" points="12352.77,7142.3 12445.64,7237.43 12449.84,7241.72 12895.58,7698.26 13372.1,7230.77 13372.24,7217.11 13372.65,7158.91 13358.59,7158.85 12978.59,7155.58 13038.31,7216.87 13291.26,7221.68 12896.67,7606.98 12539.02,7240.64 12491.78,7192.29 12444.68,7144.05 12906.04,6692 12906.04,6692.06 12907.02,6598.51 "/>
   <polygon class="fil3" points="3378.72,3303.27 3471.6,3398.41 3475.81,3402.69 3921.53,3859.24 4398.06,3391.74 4398.21,3378.08 4398.61,3319.88 4384.54,3319.83 4004.55,3316.56 4064.26,3377.84 4317.22,3382.65 3922.64,3767.95 3564.97,3401.61 3517.73,3353.26 3470.64,3305.02 3932,2852.97 3932,2853.03 3932.99,2759.47 "/>
   <polygon class="fil3" points="5437.51,3303.27 5530.39,3398.41 5534.6,3402.69 5980.32,3859.24 6456.86,3391.74 6457,3378.08 6457.4,3319.88 6443.33,3319.83 6063.35,3316.56 6123.05,3377.84 6376.02,3382.65 5981.43,3767.95 5623.77,3401.61 5576.53,3353.26 5529.43,3305.02 5990.8,2852.97 5990.8,2853.03 5991.78,2759.47 "/>
   <polygon class="fil3" points="7496.31,3303.27 7589.19,3398.41 7593.4,3402.69 8039.11,3859.24 8515.65,3391.74 8515.8,3378.08 8516.2,3319.88 8502.13,3319.83 8122.14,3316.56 8181.85,3377.84 8434.81,3382.65 8040.23,3767.95 7682.56,3401.61 7635.32,3353.26 7588.23,3305.02 8049.59,2852.97 8049.59,2853.03 8050.57,2759.47 "/>
   <polygon class="fil3" points="9555.1,3303.27 9647.98,3398.41 9652.19,3402.69 10097.91,3859.24 10574.44,3391.74 10574.59,3378.08 10574.99,3319.88 10560.92,3319.83 10180.94,3316.56 10240.64,3377.84 10493.6,3382.65 10099.02,3767.95 9741.36,3401.61 9694.12,3353.26 9647.02,3305.02 10108.38,2852.97 10108.38,2853.03 10109.37,2759.47 "/>
   <polygon class="fil3" points="11613.9,3303.27 11706.77,3398.41 11710.99,3402.69 12156.7,3859.24 12633.24,3391.74 12633.39,3378.08 12633.79,3319.88 12619.72,3319.83 12239.73,3316.56 12299.44,3377.84 12552.4,3382.65 12157.81,3767.95 11800.15,3401.61 11752.91,3353.26 11705.82,3305.02 12167.18,2852.97 12167.18,2853.03 12168.16,2759.47 "/>
   <polygon class="fil3" points="4408.12,2745.31 4500.99,2840.44 4505.21,2844.72 4950.92,3301.27 5427.46,2833.78 5427.61,2820.11 5428.01,2761.91 5413.94,2761.87 5033.95,2758.59 5093.66,2819.87 5346.62,2824.69 4952.03,3209.98 4594.37,2843.64 4547.13,2795.29 4500.04,2747.06 4961.4,2295 4961.4,2295.06 4962.38,2201.51 "/>
   <polygon class="fil3" points="6466.91,2745.31 6559.79,2840.44 6564,2844.72 7009.72,3301.27 7486.25,2833.78 7486.4,2820.11 7486.8,2761.91 7472.73,2761.87 7092.75,2758.59 7152.45,2819.87 7405.41,2824.69 7010.83,3209.98 6653.17,2843.64 6605.92,2795.29 6558.83,2747.06 7020.19,2295 7020.19,2295.06 7021.18,2201.51 "/>
   <polygon class="fil3" points="8525.71,2745.31 8618.58,2840.44 8622.8,2844.72 9068.51,3301.27 9545.05,2833.78 9545.19,2820.11 9545.59,2761.91 9531.52,2761.87 9151.54,2758.59 9211.25,2819.87 9464.21,2824.69 9069.62,3209.98 8711.96,2843.64 8664.72,2795.29 8617.62,2747.06 9078.99,2295 9078.99,2295.06 9079.97,2201.51 "/>
   <polygon class="fil3" points="10584.5,2745.31 10677.38,2840.44 10681.59,2844.72 11127.31,3301.27 11603.84,2833.78 11603.99,2820.11 11604.39,2761.91 11590.32,2761.87 11210.33,2758.59 11270.04,2819.87 11523,2824.69 11128.42,3209.98 10770.75,2843.64 10723.51,2795.29 10676.42,2747.06 11137.78,2295 11137.78,2295.06 11138.77,2201.51 "/>
   <polygon class="fil3" points="12643.29,2745.31 12736.17,2840.44 12740.38,2844.72 13186.1,3301.27 13662.64,2833.78 13662.78,2820.11 13663.18,2761.91 13649.11,2761.87 13269.13,2758.59 13328.83,2819.87 13581.8,2824.69 13187.21,3209.98 12829.55,2843.64 12782.31,2795.29 12735.21,2747.06 13196.58,2295 13196.58,2295.06 13197.56,2201.51 "/>
   <polygon class="fil3" points="3378.72,4403.02 3471.6,4498.16 3475.81,4502.44 3921.53,4958.99 4398.06,4491.5 4398.21,4477.83 4398.61,4419.63 4384.54,4419.58 4004.55,4416.31 4064.26,4477.59 4317.22,4482.41 3922.64,4867.7 3564.97,4501.36 3517.73,4453.01 3470.64,4404.78 3932,3952.72 3932,3952.78 3932.99,3859.23 "/>
   <polygon class="fil3" points="5437.51,4403.02 5530.39,4498.16 5534.6,4502.44 5980.32,4958.99 6456.86,4491.5 6457,4477.83 6457.4,4419.63 6443.33,4419.58 6063.35,4416.31 6123.05,4477.59 6376.02,4482.41 5981.43,4867.7 5623.77,4501.36 5576.53,4453.01 5529.43,4404.78 5990.8,3952.72 5990.8,3952.78 5991.78,3859.23 "/>
   <polygon class="fil3" points="7496.31,4403.02 7589.19,4498.16 7593.4,4502.44 8039.11,4958.99 8515.65,4491.5 8515.8,4477.83 8516.2,4419.63 8502.13,4419.58 8122.14,4416.31 8181.85,4477.59 8434.81,4482.41 8040.23,4867.7 7682.56,4501.36 7635.32,4453.01 7588.23,4404.78 8049.59,3952.72 8049.59,3952.78 8050.57,3859.23 "/>
   <polygon class="fil3" points="9555.1,4403.02 9647.98,4498.16 9652.19,4502.44 10097.91,4958.99 10574.44,4491.5 10574.59,4477.83 10574.99,4419.63 10560.92,4419.58 10180.94,4416.31 10240.64,4477.59 10493.6,4482.41 10099.02,4867.7 9741.36,4501.36 9694.12,4453.01 9647.02,4404.78 10108.38,3952.72 10108.38,3952.78 10109.37,3859.23 "/>
   <polygon class="fil3" points="11613.9,4403.02 11706.77,4498.16 11710.99,4502.44 12156.7,4958.99 12633.24,4491.5 12633.39,4477.83 12633.79,4419.63 12619.72,4419.58 12239.73,4416.31 12299.44,4477.59 12552.4,4482.41 12157.81,4867.7 11800.15,4501.36 11752.91,4453.01 11705.82,4404.78 12167.18,3952.72 12167.18,3952.78 12168.16,3859.23 "/>
   <polygon class="fil3" points="4408.12,3845.06 4500.99,3940.19 4505.21,3944.47 4950.92,4401.02 5427.46,3933.53 5427.61,3919.86 5428.01,3861.66 5413.94,3861.62 5033.95,3858.34 5093.66,3919.62 5346.62,3924.44 4952.03,4309.73 4594.37,3943.39 4547.13,3895.04 4500.04,3846.81 4961.4,3394.75 4961.4,3394.81 4962.38,3301.26 "/>
   <polygon class="fil3" points="6466.91,3845.06 6559.79,3940.19 6564,3944.47 7009.72,4401.02 7486.25,3933.53 7486.4,3919.86 7486.8,3861.66 7472.73,3861.62 7092.75,3858.34 7152.45,3919.62 7405.41,3924.44 7010.83,4309.73 6653.17,3943.39 6605.92,3895.04 6558.83,3846.81 7020.19,3394.75 7020.19,3394.81 7021.18,3301.26 "/>
   <polygon class="fil3" points="8525.71,3845.06 8618.58,3940.19 8622.8,3944.47 9068.51,4401.02 9545.05,3933.53 9545.19,3919.86 9545.59,3861.66 9531.52,3861.62 9151.54,3858.34 9211.25,3919.62 9464.21,3924.44 9069.62,4309.73 8711.96,3943.39 8664.72,3895.04 8617.62,3846.81 9078.99,3394.75 9078.99,3394.81 9079.97,3301.26 "/>
   <polygon class="fil3" points="10584.5,3845.06 10677.38,3940.19 10681.59,3944.47 11127.31,4401.02 11603.84,3933.53 11603.99,3919.86 11604.39,3861.66 11590.32,3861.62 11210.33,3858.34 11270.04,3919.62 11523,3924.44 11128.42,4309.73 10770.75,3943.39 10723.51,3895.04 10676.42,3846.81 11137.78,3394.75 11137.78,3394.81 11138.77,3301.26 "/>
   <polygon class="fil3" points="12643.29,3845.06 12736.17,3940.19 12740.38,3944.47 13186.1,4401.02 13662.64,3933.53 13662.78,3919.86 13663.18,3861.66 13649.11,3861.62 13269.13,3858.34 13328.83,3919.62 13581.8,3924.44 13187.21,4309.73 12829.55,3943.39 12782.31,3895.04 12735.21,3846.81 13196.58,3394.75 13196.58,3394.81 13197.56,3301.26 "/>
   <polygon class="fil3" points="3378.72,5502.77 3471.6,5597.91 3475.81,5602.19 3921.53,6058.74 4398.06,5591.25 4398.21,5577.58 4398.61,5519.38 4384.54,5519.33 4004.55,5516.06 4064.26,5577.34 4317.22,5582.16 3922.64,5967.45 3564.97,5601.11 3517.73,5552.76 3470.64,5504.53 3932,5052.47 3932,5052.53 3932.99,4958.98 "/>
   <polygon class="fil3" points="5437.51,5502.77 5530.39,5597.91 5534.6,5602.19 5980.32,6058.74 6456.86,5591.25 6457,5577.58 6457.4,5519.38 6443.33,5519.33 6063.35,5516.06 6123.05,5577.34 6376.02,5582.16 5981.43,5967.45 5623.77,5601.11 5576.53,5552.76 5529.43,5504.53 5990.8,5052.47 5990.8,5052.53 5991.78,4958.98 "/>
   <polygon class="fil3" points="7496.31,5502.77 7589.19,5597.91 7593.4,5602.19 8039.11,6058.74 8515.65,5591.25 8515.8,5577.58 8516.2,5519.38 8502.13,5519.33 8122.14,5516.06 8181.85,5577.34 8434.81,5582.16 8040.23,5967.45 7682.56,5601.11 7635.32,5552.76 7588.23,5504.53 8049.59,5052.47 8049.59,5052.53 8050.57,4958.98 "/>
   <polygon class="fil3" points="9555.1,5502.77 9647.98,5597.91 9652.19,5602.19 10097.91,6058.74 10574.44,5591.25 10574.59,5577.58 10574.99,5519.38 10560.92,5519.33 10180.94,5516.06 10240.64,5577.34 10493.6,5582.16 10099.02,5967.45 9741.36,5601.11 9694.12,5552.76 9647.02,5504.53 10108.38,5052.47 10108.38,5052.53 10109.37,4958.98 "/>
   <polygon class="fil3" points="11613.9,5502.77 11706.77,5597.91 11710.99,5602.19 12156.7,6058.74 12633.24,5591.25 12633.39,5577.58 12633.79,5519.38 12619.72,5519.33 12239.73,5516.06 12299.44,5577.34 12552.4,5582.16 12157.81,5967.45 11800.15,5601.11 11752.91,5552.76 11705.82,5504.53 12167.18,5052.47 12167.18,5052.53 12168.16,4958.98 "/>
   <polygon class="fil3" points="4408.12,4944.81 4500.99,5039.95 4505.21,5044.22 4950.92,5500.77 5427.46,5033.28 5427.61,5019.61 5428.01,4961.41 5413.94,4961.37 5033.95,4958.09 5093.66,5019.37 5346.62,5024.19 4952.03,5409.48 4594.37,5043.15 4547.13,4994.79 4500.04,4946.56 4961.4,4494.5 4961.4,4494.56 4962.38,4401.01 "/>
   <polygon class="fil3" points="6466.91,4944.81 6559.79,5039.95 6564,5044.22 7009.72,5500.77 7486.25,5033.28 7486.4,5019.61 7486.8,4961.41 7472.73,4961.37 7092.75,4958.09 7152.45,5019.37 7405.41,5024.19 7010.83,5409.48 6653.17,5043.15 6605.92,4994.79 6558.83,4946.56 7020.19,4494.5 7020.19,4494.56 7021.18,4401.01 "/>
   <polygon class="fil3" points="8525.71,4944.81 8618.58,5039.95 8622.8,5044.22 9068.51,5500.77 9545.05,5033.28 9545.19,5019.61 9545.59,4961.41 9531.52,4961.37 9151.54,4958.09 9211.25,5019.37 9464.21,5024.19 9069.62,5409.48 8711.96,5043.15 8664.72,4994.79 8617.62,4946.56 9078.99,4494.5 9078.99,4494.56 9079.97,4401.01 "/>
   <polygon class="fil3" points="10584.5,4944.81 10677.38,5039.95 10681.59,5044.22 11127.31,5500.77 11603.84,5033.28 11603.99,5019.61 11604.39,4961.41 11590.32,4961.37 11210.33,4958.09 11270.04,5019.37 11523,5024.19 11128.42,5409.48 10770.75,5043.15 10723.51,4994.79 10676.42,4946.56 11137.78,4494.5 11137.78,4494.56 11138.77,4401.01 "/>
   <polygon class="fil3" points="12643.29,4944.81 12736.17,5039.95 12740.38,5044.22 13186.1,5500.77 13662.64,5033.28 13662.78,5019.61 13663.18,4961.41 13649.11,4961.37 13269.13,4958.09 13328.83,5019.37 13581.8,5024.19 13187.21,5409.48 12829.55,5043.15 12782.31,4994.79 12735.21,4946.56 13196.58,4494.5 13196.58,4494.56 13197.56,4401.01 "/>
   <polygon class="fil3" points="3378.72,6602.53 3471.6,6697.66 3475.81,6701.94 3921.53,7158.49 4398.06,6691 4398.21,6677.33 4398.61,6619.13 4384.54,6619.09 4004.55,6615.81 4064.26,6677.09 4317.22,6681.91 3922.64,7067.2 3564.97,6700.86 3517.73,6652.51 3470.64,6604.28 3932,6152.22 3932,6152.28 3932.99,6058.73 "/>
   <polygon class="fil3" points="5437.51,6602.53 5530.39,6697.66 5534.6,6701.94 5980.32,7158.49 6456.86,6691 6457,6677.33 6457.4,6619.13 6443.33,6619.09 6063.35,6615.81 6123.05,6677.09 6376.02,6681.91 5981.43,7067.2 5623.77,6700.86 5576.53,6652.51 5529.43,6604.28 5990.8,6152.22 5990.8,6152.28 5991.78,6058.73 "/>
   <polygon class="fil3" points="7496.31,6602.53 7589.19,6697.66 7593.4,6701.94 8039.11,7158.49 8515.65,6691 8515.8,6677.33 8516.2,6619.13 8502.13,6619.09 8122.14,6615.81 8181.85,6677.09 8434.81,6681.91 8040.23,7067.2 7682.56,6700.86 7635.32,6652.51 7588.23,6604.28 8049.59,6152.22 8049.59,6152.28 8050.57,6058.73 "/>
   <polygon class="fil3" points="9555.1,6602.53 9647.98,6697.66 9652.19,6701.94 10097.91,7158.49 10574.44,6691 10574.59,6677.33 10574.99,6619.13 10560.92,6619.09 10180.94,6615.81 10240.64,6677.09 10493.6,6681.91 10099.02,7067.2 9741.36,6700.86 9694.12,6652.51 9647.02,6604.28 10108.38,6152.22 10108.38,6152.28 10109.37,6058.73 "/>
   <polygon class="fil3" points="11613.9,6602.53 11706.77,6697.66 11710.99,6701.94 12156.7,7158.49 12633.24,6691 12633.39,6677.33 12633.79,6619.13 12619.72,6619.09 12239.73,6615.81 12299.44,6677.09 12552.4,6681.91 12157.81,7067.2 11800.15,6700.86 11752.91,6652.51 11705.82,6604.28 12167.18,6152.22 12167.18,6152.28 12168.16,6058.73 "/>
   <polygon class="fil3" points="4408.12,6044.56 4500.99,6139.7 4505.21,6143.97 4950.92,6600.52 5427.46,6133.03 5427.61,6119.36 5428.01,6061.16 5413.94,6061.12 5033.95,6057.84 5093.66,6119.13 5346.62,6123.94 4952.03,6509.23 4594.37,6142.9 4547.13,6094.55 4500.04,6046.31 4961.4,5594.26 4961.4,5594.31 4962.38,5500.76 "/>
   <polygon class="fil3" points="6466.91,6044.56 6559.79,6139.7 6564,6143.97 7009.72,6600.52 7486.25,6133.03 7486.4,6119.36 7486.8,6061.16 7472.73,6061.12 7092.75,6057.84 7152.45,6119.13 7405.41,6123.94 7010.83,6509.23 6653.17,6142.9 6605.92,6094.55 6558.83,6046.31 7020.19,5594.26 7020.19,5594.31 7021.18,5500.76 "/>
   <polygon class="fil3" points="8525.71,6044.56 8618.58,6139.7 8622.8,6143.97 9068.51,6600.52 9545.05,6133.03 9545.19,6119.36 9545.59,6061.16 9531.52,6061.12 9151.54,6057.84 9211.25,6119.13 9464.21,6123.94 9069.62,6509.23 8711.96,6142.9 8664.72,6094.55 8617.62,6046.31 9078.99,5594.26 9078.99,5594.31 9079.97,5500.76 "/>
   <polygon class="fil3" points="10584.5,6044.56 10677.38,6139.7 10681.59,6143.97 11127.31,6600.52 11603.84,6133.03 11603.99,6119.36 11604.39,6061.16 11590.32,6061.12 11210.33,6057.84 11270.04,6119.13 11523,6123.94 11128.42,6509.23 10770.75,6142.9 10723.51,6094.55 10676.42,6046.31 11137.78,5594.26 11137.78,5594.31 11138.77,5500.76 "/>
   <polygon class="fil3" points="12643.29,6044.56 12736.17,6139.7 12740.38,6143.97 13186.1,6600.52 13662.64,6133.03 13662.78,6119.36 13663.18,6061.16 13649.11,6061.12 13269.13,6057.84 13328.83,6119.13 13581.8,6123.94 13187.21,6509.23 12829.55,6142.9 12782.31,6094.55 12735.21,6046.31 13196.58,5594.26 13196.58,5594.31 13197.56,5500.76 "/>
   <polygon class="fil3" points="3378.72,7702.28 3471.6,7797.41 3475.81,7801.69 3921.53,8258.24 4398.06,7790.75 4398.21,7777.08 4398.61,7718.88 4384.54,7718.84 4004.55,7715.56 4064.26,7776.84 4317.22,7781.66 3922.64,8166.95 3564.97,7800.61 3517.73,7752.26 3470.64,7704.03 3932,7251.97 3932,7252.03 3932.99,7158.48 "/>
   <polygon class="fil3" points="5437.51,7702.28 5530.39,7797.41 5534.6,7801.69 5980.32,8258.24 6456.86,7790.75 6457,7777.08 6457.4,7718.88 6443.33,7718.84 6063.35,7715.56 6123.05,7776.84 6376.02,7781.66 5981.43,8166.95 5623.77,7800.61 5576.53,7752.26 5529.43,7704.03 5990.8,7251.97 5990.8,7252.03 5991.78,7158.48 "/>
   <polygon class="fil3" points="7496.31,7702.28 7589.19,7797.41 7593.4,7801.69 8039.11,8258.24 8515.65,7790.75 8515.8,7777.08 8516.2,7718.88 8502.13,7718.84 8122.14,7715.56 8181.85,7776.84 8434.81,7781.66 8040.23,8166.95 7682.56,7800.61 7635.32,7752.26 7588.23,7704.03 8049.59,7251.97 8049.59,7252.03 8050.57,7158.48 "/>
   <polygon class="fil3" points="9555.1,7702.28 9647.98,7797.41 9652.19,7801.69 10097.91,8258.24 10574.44,7790.75 10574.59,7777.08 10574.99,7718.88 10560.92,7718.84 10180.94,7715.56 10240.64,7776.84 10493.6,7781.66 10099.02,8166.95 9741.36,7800.61 9694.12,7752.26 9647.02,7704.03 10108.38,7251.97 10108.38,7252.03 10109.37,7158.48 "/>
   <polygon class="fil3" points="11613.9,7702.28 11706.77,7797.41 11710.99,7801.69 12156.7,8258.24 12633.24,7790.75 12633.39,7777.08 12633.79,7718.88 12619.72,7718.84 12239.73,7715.56 12299.44,7776.84 12552.4,7781.66 12157.81,8166.95 11800.15,7800.61 11752.91,7752.26 11705.82,7704.03 12167.18,7251.97 12167.18,7252.03 12168.16,7158.48 "/>
   <polygon class="fil3" points="4408.12,7144.31 4500.99,7239.45 4505.21,7243.73 4950.92,7700.27 5427.46,7232.78 5427.61,7219.11 5428.01,7160.91 5413.94,7160.87 5033.95,7157.59 5093.66,7218.88 5346.62,7223.69 4952.03,7608.98 4594.37,7242.65 4547.13,7194.3 4500.04,7146.06 4961.4,6694.01 4961.4,6694.06 4962.38,6600.51 "/>
   <polygon class="fil3" points="6466.91,7144.31 6559.79,7239.45 6564,7243.73 7009.72,7700.27 7486.25,7232.78 7486.4,7219.11 7486.8,7160.91 7472.73,7160.87 7092.75,7157.59 7152.45,7218.88 7405.41,7223.69 7010.83,7608.98 6653.17,7242.65 6605.92,7194.3 6558.83,7146.06 7020.19,6694.01 7020.19,6694.06 7021.18,6600.51 "/>
   <polygon class="fil3" points="8525.71,7144.31 8618.58,7239.45 8622.8,7243.73 9068.51,7700.27 9545.05,7232.78 9545.19,7219.11 9545.59,7160.91 9531.52,7160.87 9151.54,7157.59 9211.25,7218.88 9464.21,7223.69 9069.62,7608.98 8711.96,7242.65 8664.72,7194.3 8617.62,7146.06 9078.99,6694.01 9078.99,6694.06 9079.97,6600.51 "/>
   <polygon class="fil3" points="10584.5,7144.31 10677.38,7239.45 10681.59,7243.73 11127.31,7700.27 11603.84,7232.78 11603.99,7219.11 11604.39,7160.91 11590.32,7160.87 11210.33,7157.59 11270.04,7218.88 11523,7223.69 11128.42,7608.98 10770.75,7242.65 10723.51,7194.3 10676.42,7146.06 11137.78,6694.01 11137.78,6694.06 11138.77,6600.51 "/>
   <polygon class="fil3" points="12643.29,7144.31 12736.17,7239.45 12740.38,7243.73 13186.1,7700.27 13662.64,7232.78 13662.78,7219.11 13663.18,7160.91 13649.11,7160.87 13269.13,7157.59 13328.83,7218.88 13581.8,7223.69 13187.21,7608.98 12829.55,7242.65 12782.31,7194.3 12735.21,7146.06 13196.58,6694.01 13196.58,6694.06 13197.56,6600.51 "/>
  </g>
 </g>
</svg>
